<svg xmlns="http://www.w3.org/2000/svg" viewBox="0 0 64 64" width="64" height="64"><rect width="64" height="64" rx="14.1" fill="#1A0E08"/><g transform="translate(20.02 52.59) scale(0.02657 -0.02657)"><path fill="#F3E6D3" d="M844.078857421875 643.400146484375Q844.078857421875 575.4005126953125 805.8991394042969 537.8407287597656Q767.7194213867188 500.28094482421875 705.5198974609375 500.28094482421875Q641.3203735351562 500.28094482421875 609.9006042480469 536.5407104492188Q578.4808349609375 572.8004760742188 578.4808349609375 631.400146484375V659.4401245117188Q578.4808349609375 706.4003295898438 549.5205383300781 733.2405090332031Q520.5602416992188 760.0806884765625 465.8397216796875 760.0806884765625Q413.999267578125 760.0806884765625 372.7789306640625 730.8404541015625Q331.55859375 701.6002197265625 307.8984069824219 646.7598571777344Q284.23822021484375 591.9194946289062 284.23822021484375 514.6390991210938Q284.23822021484375 409.03887939453125 320.29827880859375 336.71868896484375Q356.35833740234375 264.39849853515625 417.97845458984375 227.77838134765625Q479.59857177734375 191.15826416015625 556.5987548828125 191.15826416015625Q633.8391723632812 191.15826416015625 682.6593627929688 219.4786376953125Q731.4795532226562 247.79901123046875 763.0794067382812 292.87933349609375Q783.0792236328125 312.67926025390625 794.8591613769531 318.5192565917969Q806.6390991210938 324.3592529296875 818.3590698242188 324.3592529296875Q833.4390258789062 324.3592529296875 842.8589782714844 312.1192932128906Q852.2789306640625 299.87933349609375 851.638916015625 274.27947998046875Q848.1188354492188 196.31964111328125 801.1589050292969 129.43975830078125Q754.198974609375 62.55987548828125 670.6991577148438 21.279937744140625Q587.1993408203125 -20 474.39959716796875 -20Q348.87969970703125 -20 250.43984985351562 36.0Q152 92 96.1201171875 193.87997436523438Q40.240234375 295.75994873046875 40.240234375 432.91986083984375Q40.240234375 565.31982421875 95.38015747070312 671.3997802734375Q150.52008056640625 777.479736328125 252.11993408203125 839.3796997070312Q353.71978759765625 901.2796630859375 491.75958251953125 901.2796630859375Q600.83935546875 901.2796630859375 679.7991943359375 865.5197143554688Q758.759033203125 829.759765625 801.4189453125 770.8998718261719Q844.078857421875 712.0399780273438 844.078857421875 643.400146484375Z"/><path fill="#D9743F" transform="translate(649.8 1302.1) rotate(-36)" d="M 0 -469.92 C 59.21 -291.35 140.98 -129.70 140.98 0 A 140.98 140.98 0 0 1 -140.98 0 C -140.98 -129.70 -59.21 -291.35 0 -469.92 Z"/></g></svg>